<svg xmlns="http://www.w3.org/2000/svg" width="17" height="17" viewBox="0 0 17 17" fill="none">
<path d="M5.12343 12.6921L11.2258 6.5897L11.2258 12.0769C11.2258 12.0769 11.2683 12.1758 11.3248 12.1758L12.4279 12.1758C12.4279 12.1758 12.5269 12.1334 12.5269 12.0769L12.5198 5.04114C12.5198 4.71587 12.2511 4.44717 11.9188 4.4401L4.87602 4.4401C4.87602 4.4401 4.77702 4.48252 4.77702 4.53909L4.77702 5.64218C4.77702 5.64218 4.81945 5.74117 4.87602 5.74117L10.3632 5.74117L4.26076 11.8436C4.21833 11.886 4.21833 11.9426 4.25369 11.9779L4.97494 12.6992C5.01029 12.7345 5.06686 12.7345 5.10929 12.6921L5.12343 12.6921Z" fill="white"/>
</svg>