<svg xmlns="http://www.w3.org/2000/svg" width="20" height="20" viewBox="0 0 20 20" fill="none"><g id="ic20_youtube"><path id="youtube" fill-rule="evenodd" clip-rule="evenodd" d="M7.58621 13.3125V7.125L13.1034 10.2189L7.58621 13.3125ZM19.582 5.14711C19.352 4.30193 18.6743 3.63638 17.8139 3.4105C16.2542 3 10 3 10 3C10 3 3.7458 3 2.18614 3.4105C1.32568 3.63638 0.647955 4.30193 0.417955 5.14711C0 6.6789 0 9.875 0 9.875C0 9.875 0 13.071 0.417955 14.6029C0.647955 15.4481 1.32568 16.1136 2.18614 16.3396C3.7458 16.75 10 16.75 10 16.75C10 16.75 16.2542 16.75 17.8139 16.3396C18.6743 16.1136 19.352 15.4481 19.582 14.6029C20 13.071 20 9.875 20 9.875C20 9.875 20 6.6789 19.582 5.14711Z" fill="white"></path></g></svg>