<svg xmlns="http://www.w3.org/2000/svg" width="17" height="19" viewBox="0 0 17 19" fill="none"><g id="footer_logo_navertv"><path id="Fill 1" fill-rule="evenodd" clip-rule="evenodd" d="M0.5 15.3481H5.15686V2.57031H0.5V15.3481Z" fill="url(#paint0_linear_13794_149174)"></path><path id="Fill 3" fill-rule="evenodd" clip-rule="evenodd" d="M15.8232 7.827C15.1163 6.71901 13.6255 6.38252 12.494 7.07445L1.63617 13.7161C0.504264 14.4077 0.160153 15.8674 0.867375 16.975C1.5746 18.0823 3.06504 18.4195 4.19695 17.7272L15.0547 11.0858C16.1863 10.3936 16.5304 8.93463 15.8232 7.827Z" fill="white"></path><path id="Fill 6" fill-rule="evenodd" clip-rule="evenodd" d="M15.8232 10.3342C15.1163 11.4418 13.6255 11.7787 12.494 11.0867L1.63617 4.44504C0.504264 3.75311 0.160153 2.29383 0.867375 1.18619C1.5746 0.0785568 3.06504 -0.258281 4.19695 0.433993L15.0547 7.07534C16.1863 7.76761 16.5304 9.22655 15.8232 10.3342Z" fill="white"></path></g><defs><linearGradient id="paint0_linear_13794_149174" x1="3.97672" y1="12.4251" x2="3.97672" y2="6.12326" gradientUnits="userSpaceOnUse"><stop stop-color="white"></stop><stop offset="1" stop-color="white" stop-opacity="0.36238"></stop></linearGradient></defs></svg>