<svg width="26" height="26" viewBox="0 0 26 26" fill="none" xmlns="http://www.w3.org/2000/svg">
<g id="ic12_icon_arrow_right">
<path id="1.3" d="M7.95724 19.3116L17.1109 10.158L17.1109 18.3887C17.1109 18.3887 17.1745 18.5372 17.2593 18.5372L18.914 18.5372C18.914 18.5372 19.0625 18.4736 19.0625 18.3887L19.0519 7.83514C19.0519 7.34724 18.6488 6.94419 18.1503 6.93358L7.58613 6.93358C7.58613 6.93358 7.43763 6.99722 7.43763 7.08208L7.43763 8.7367C7.43763 8.7367 7.50127 8.8852 7.58612 8.8852L15.8168 8.8852L6.66323 18.0388C6.5996 18.1024 6.5996 18.1873 6.65263 18.2403L7.7345 19.3222C7.78753 19.3752 7.87239 19.3752 7.93603 19.3116L7.95724 19.3116Z" fill="#202124"/>
</g>
</svg>
