<svg xmlns="http://www.w3.org/2000/svg" width="20" height="20" viewBox="0 0 20 20" fill="none"><g id="ic20_blog"><path id="Fill 1" fill-rule="evenodd" clip-rule="evenodd" d="M15.1276 9.62885C15.6096 9.62885 15.949 9.30757 15.949 8.83706C15.949 8.3656 15.6096 8.04432 15.1276 8.04432C14.6456 8.04432 14.3062 8.3656 14.3062 8.83706C14.3062 9.30757 14.6456 9.62885 15.1276 9.62885ZM10.9187 9.65641C11.3611 9.65641 11.6994 9.33513 11.6994 8.85037C11.6994 8.3656 11.3611 8.04432 10.9187 8.04432C10.4783 8.04432 10.138 8.3656 10.138 8.85037C10.138 9.33513 10.4783 9.65641 10.9187 9.65641ZM5.0501 9.73245C5.5189 9.73245 5.85822 9.41118 5.85822 8.89979C5.85822 8.38746 5.5189 8.06714 5.0501 8.06714C4.58223 8.06714 4.24291 8.38746 4.24291 8.89979C4.24291 9.41118 4.58223 9.73245 5.0501 9.73245ZM8.10208 16.0972L9.69471 19.8232C9.83081 20.0589 10.1692 20.0589 10.3043 19.8232L11.8979 16.0972H16.551C18.4414 16.0972 20 14.5592 20 12.6582V4.45515C20 2.5541 18.4414 1 16.551 1H3.40737C1.51701 1 0 2.5541 0 4.45515V12.6582C0 14.5583 1.53119 16.0972 3.41966 16.0972H8.10208ZM14.9669 7.04057C15.4206 7.04057 15.7543 7.20882 15.983 7.49587V7.13848H16.9991V10.4634C16.9991 11.6402 16.0888 12.1373 15.1626 12.1373V11.2134H15.1966C15.6843 11.2134 15.983 10.9605 15.983 10.4634V10.1421C15.7543 10.4292 15.4206 10.5974 14.9669 10.5974C13.9792 10.5974 13.2552 9.78473 13.2552 8.819C13.2552 7.85232 13.9792 7.04057 14.9669 7.04057ZM10.9187 7.04057C11.9423 7.04057 12.7637 7.84566 12.7637 8.88839C12.7637 9.93206 11.9423 10.7372 10.9187 10.7372C9.89603 10.7372 9.07467 9.93206 9.07467 8.88839C9.07467 7.84566 9.89603 7.04057 10.9187 7.04057ZM6.84121 5.84386C7.68809 5.92751 8.45558 6.44269 8.45558 7.53009V10.6383H7.4121V7.53009C7.4121 7.10806 7.19943 6.85997 6.84121 6.79058V5.84386ZM3 5.97123H4.04348L4.04442 5.97218V7.46831C4.2741 7.20216 4.61437 7.04057 5.08129 7.04057C5.99338 7.04057 6.7448 7.84566 6.7448 8.88839C6.7448 9.93206 5.99338 10.7372 5.08129 10.7372C4.61437 10.7372 4.2741 10.5756 4.04442 10.3094V10.6383H3V5.97123Z" fill="white"></path></g></svg>