<svg xmlns="http://www.w3.org/2000/svg" width="20" height="12" viewBox="0 0 20 12" fill="none"><g id="btn_menu"><path id="Vector" d="M20 0.21C20 0.1 19.8655 0.01 19.6807 0C19.6807 0 19.6807 0 19.6639 0H0.352941H0.336134C0.151261 0 0 0.08 0 0.19C0 0.19 0 0.2 0 0.21V1.8C0 1.91 0.134454 1.99 0.319328 2H0.336134H19.6471C19.8319 2 19.9832 1.92 19.9832 1.81V0.21H20Z" fill="#231815"></path><path id="Vector_2" d="M20 5.21C20 5.1 19.8655 5.01 19.6807 5C19.6807 5 19.6807 5 19.6639 5H0.352941H0.336134C0.151261 5 0 5.08 0 5.19C0 5.19 0 5.2 0 5.21V6.8C0 6.91 0.134454 6.99 0.319328 7H0.336134H19.6471C19.8319 7 19.9832 6.92 19.9832 6.81V5.21H20Z" fill="#231815"></path><path id="Vector_3" d="M20 10.21C20 10.1 19.8655 10.01 19.6807 10C19.6807 10 19.6807 10 19.6639 10H0.352941H0.336134C0.151261 10 0 10.08 0 10.19C0 10.19 0 10.2 0 10.21V11.8C0 11.91 0.134454 11.99 0.319328 12H0.336134H19.6471C19.8319 12 19.9832 11.92 19.9832 11.81V10.21H20Z" fill="#231815"></path></g></svg>