
<svg width="18" height="18" viewBox="0 0 18 18" fill="none" xmlns="http://www.w3.org/2000/svg">
<g id="ic18_icon_arrow_back">
<path id="Vector" d="M16.6381 8.39158L16.638 8.39167L16.6418 8.3952C16.8129 8.55134 16.9 8.76848 16.9 9.0017C16.9 9.23166 16.8013 9.45138 16.6391 9.61075L16.6391 9.61074L16.6381 9.61183L11.6725 14.6434C11.4978 14.8148 11.2741 14.9 11.0508 14.9C10.8272 14.9 10.6033 14.8147 10.4286 14.6429C10.0946 14.3147 10.0946 13.7666 10.4286 13.4384L10.4286 13.4385L10.4302 13.4368L13.7486 10.0239L13.9136 9.85422L13.6769 9.85422L1.96923 9.85422C1.48281 9.85422 1.1 9.47553 1.1 9.0017C1.1 8.52787 1.48281 8.14919 1.96923 8.14919L13.6769 8.14919L13.913 8.14919L13.7488 7.97962L10.4303 4.55311L10.4303 4.55309L10.4286 4.55136C10.0946 4.22315 10.0946 3.67508 10.4286 3.34687C10.7633 3.01787 11.3236 3.01771 11.6586 3.34638C11.6588 3.34654 11.659 3.34671 11.6591 3.34687L16.6381 8.39158Z" fill="#343434" stroke="white" stroke-width="0.2"/>
</g>
</svg>
