<svg width="76" height="76" viewBox="0 0 76 76" fill="none" xmlns="http://www.w3.org/2000/svg">
<g id="btn_help">
<g id="Ellipse 252" filter="url(#filter0_d_16202_345608)">
<circle cx="38" cy="38" r="28" transform="rotate(-90 38 38)" fill="#202936"/>
</g>
<path id="E" d="M53.4054 51.4884L52.8003 50.8923C52.4029 50.5039 52.1861 49.971 52.1861 49.4201V44.913C52.1861 41.3362 49.4764 38.4007 45.99 38.0394C46.4867 36.9194 46.7667 35.691 46.7667 34.3904V31.6807C46.7667 26.6949 42.7203 22.6484 37.7345 22.6484H34.1216C29.1358 22.6484 25.0893 26.6949 25.0893 31.6807V37.9581C25.0893 38.5723 24.8816 39.1684 24.4932 39.6471L22.8854 41.6613C22.3164 42.3749 22.8222 43.4226 23.7345 43.4226H36.0996C35.9913 43.9013 35.9371 44.4071 35.9371 44.913V46.4394C35.9371 50.2601 39.0351 53.3491 42.8467 53.3491H52.6558C53.6222 53.3491 54.11 52.1749 53.4145 51.4975L53.4054 51.4884ZM26.67 40.9026C27.2661 40.0355 27.5913 38.9968 27.5913 37.9401V31.6626C27.5913 28.0588 30.5177 25.1323 34.1216 25.1323H37.7345C41.3384 25.1323 44.2648 28.0588 44.2648 31.6626V34.3723C44.2648 37.9762 41.3384 40.9026 37.7345 40.9026H26.67ZM34.6635 33.0175C34.6635 32.322 35.2325 31.753 35.928 31.753C36.6235 31.753 37.1925 32.322 37.1925 33.0175C37.1925 33.713 36.6235 34.282 35.928 34.282C35.2325 34.282 34.6635 33.713 34.6635 33.0175ZM39.1796 33.0175C39.1796 32.322 39.7487 31.753 40.4442 31.753C41.1396 31.753 41.7087 32.322 41.7087 33.0175C41.7087 33.713 41.1396 34.282 40.4442 34.282C39.7487 34.282 39.1796 33.713 39.1796 33.0175ZM30.1474 33.0175C30.1474 32.322 30.7164 31.753 31.4119 31.753C32.1074 31.753 32.6764 32.322 32.6764 33.0175C32.6764 33.713 32.1074 34.282 31.4119 34.282C30.7164 34.282 30.1474 33.713 30.1474 33.0175Z" fill="white"/>
</g>
<defs>
<filter id="filter0_d_16202_345608" x="0" y="0" width="76" height="76" filterUnits="userSpaceOnUse" color-interpolation-filters="sRGB">
<feFlood flood-opacity="0" result="BackgroundImageFix"/>
<feColorMatrix in="SourceAlpha" type="matrix" values="0 0 0 0 0 0 0 0 0 0 0 0 0 0 0 0 0 0 127 0" result="hardAlpha"/>
<feOffset/>
<feGaussianBlur stdDeviation="5"/>
<feComposite in2="hardAlpha" operator="out"/>
<feColorMatrix type="matrix" values="0 0 0 0 0 0 0 0 0 0 0 0 0 0 0 0 0 0 0.25 0"/>
<feBlend mode="normal" in2="BackgroundImageFix" result="effect1_dropShadow_16202_345608"/>
<feBlend mode="normal" in="SourceGraphic" in2="effect1_dropShadow_16202_345608" result="shape"/>
</filter>
</defs>
</svg>
