<svg xmlns="http://www.w3.org/2000/svg" width="174" height="19" viewBox="0 0 174 19" fill="none"><path d="M17.0804 19H21.6945C21.9229 19 22.1243 18.8435 22.1781 18.62L26.5325 0.594588C26.6042 0.290588 26.3758 0 26.0624 0H20.9154C20.687 0 20.49 0.158706 20.443 0.382235L16.5968 18.4009C16.5318 18.7094 16.7669 19 17.0826 19H17.0804Z" fill="url(#paint0_linear_13536_183486)"></path><path opacity="0.25" d="M16.5987 18.5351L20.4449 0.516353C20.4919 0.295059 20.689 0.134118 20.9173 0.134118H26.0643C26.3128 0.134118 26.5053 0.319647 26.5389 0.547647C26.5792 0.261529 26.3598 0 26.0643 0H20.9173C20.689 0 20.4919 0.158706 20.4449 0.382235L16.5987 18.4009C16.5853 18.4591 16.5875 18.5172 16.5942 18.5708C16.5942 18.5596 16.5942 18.5462 16.5987 18.5351Z" fill="white"></path><path d="M20.3958 9.06907C18.3047 4.50012 15.0339 3.81836 13.2697 3.81836C11.5055 3.81836 8.23466 4.50012 6.14363 9.06907C5.022 11.5189 4.40633 14.7579 4.3526 18.4662C4.34812 18.7591 4.5832 19.0005 4.87648 19.0005H9.44808C9.73241 19.0005 9.96748 18.7725 9.97196 18.4886C10.019 15.6162 10.4712 13.1149 11.2548 11.4005C11.8548 10.0906 12.5309 9.42895 13.2697 9.42895C14.0085 9.42895 14.6846 10.0928 15.2846 11.4005C16.0727 13.1217 16.5249 15.6386 16.5674 18.5288C16.5719 18.7904 16.7868 19.0005 17.0488 19.0005H21.7032C21.9719 19.0005 22.189 18.7837 22.1868 18.5154C22.1375 14.7869 21.5196 11.5301 20.3935 9.06907H20.3958Z" fill="url(#paint1_linear_13536_183486)"></path><path opacity="0.4" d="M6.14552 9.20318C8.23655 4.63424 11.5074 3.95248 13.2716 3.95248C15.0357 3.95248 18.3066 4.63424 20.3976 9.20318C21.5126 11.6397 22.1282 14.8585 22.1887 18.5422C22.1887 18.5333 22.1909 18.5244 22.1909 18.5154C22.1417 14.7869 21.5238 11.5301 20.3976 9.06907C18.3066 4.50012 15.0357 3.81836 13.2716 3.81836C11.5074 3.81836 8.23655 4.50012 6.14552 9.06907C5.02389 11.5189 4.40822 14.7579 4.35449 18.4662C4.35449 18.4752 4.35449 18.4864 4.35673 18.4953C4.42166 14.8317 5.03508 11.6285 6.14552 9.20318Z" fill="white"></path><path d="M9.48171 19H4.83846C4.61458 19 4.42204 18.848 4.36831 18.6312L0.0138697 0.594588C-0.0600103 0.290588 0.170585 0 0.484015 0H5.63099C5.85935 0 6.05636 0.158706 6.10337 0.382235L9.95409 18.4188C10.019 18.7184 9.78842 19.0022 9.48171 19.0022V19Z" fill="url(#paint2_linear_13536_183486)"></path><path opacity="0.5" d="M0.479933 0.134118H5.62691C5.85526 0.134118 6.05228 0.292823 6.09929 0.516353L9.95001 18.5529C9.95001 18.5529 9.95001 18.5753 9.95224 18.5865C9.95896 18.5328 9.9612 18.4769 9.95001 18.4188L6.09929 0.382235C6.05228 0.158706 5.85526 0 5.62914 0H0.479933C0.184413 0 -0.0327499 0.261529 0.00530952 0.547647C0.0388913 0.319647 0.231427 0.134118 0.479933 0.134118Z" fill="white"></path><path d="M99.3335 6.72495C99.3335 4.36448 97.6813 2.43989 95.6059 2.3326V2.32812H88.3164V17.0431H91.1955V11.124H92.9776L96.1141 17.0431H99.329L96.1499 11.0458C97.9589 10.6613 99.329 8.87307 99.329 6.72718L99.3335 6.72495ZM94.9567 8.37012H91.1977V5.07754H94.9567C95.7469 5.07754 96.3872 5.81518 96.3872 6.72271C96.3872 7.63024 95.7469 8.36789 94.9567 8.36789V8.37012Z" fill="#202936"></path><path d="M37.5047 6.86577V17.0431H34.6055V2.32812H38.1025L43.527 12.5613V2.32812H46.4263V17.0431H42.8912L37.5047 6.86577Z" fill="#202936"></path><path d="M52.3386 14.0545L51.4027 17.0431H48.3535L53.1221 2.32812H56.9751L61.7437 17.0431H58.6945L57.7587 14.0545H52.3341H52.3386ZM55.0497 5.07307L53.1983 11.2917H56.9012L55.0497 5.07307Z" fill="#202936"></path><path d="M73.8225 2.32812L69.0539 17.0431H65.295L60.5264 2.32812H63.4816L67.1666 13.7572L70.8696 2.32812H73.8248H73.8225Z" fill="#202936"></path><path d="M86.0704 14.278V17.0408H75.6914V2.32812H86.0704V5.09095H78.5705V7.83589H84.6869V10.5987H78.5705V14.278H86.0704Z" fill="#202936"></path><path d="M119.207 2.32812L118 9.65765C117.042 7.37542 115.511 6.11918 113.462 6.11918C111.414 6.11918 109.882 7.37542 108.924 9.65765L107.718 2.32812H104.704L107.442 17.0431H110.297C110.297 12.2193 111.483 8.98483 113.46 8.98483C115.437 8.98483 116.623 12.2193 116.623 17.0431H119.478L122.216 2.32812H119.202H119.207Z" fill="#202936"></path><path d="M123.638 8.41434C123.638 4.90269 125.415 2.08398 129.566 2.08398C133.717 2.08398 135.494 4.90269 135.494 8.41434V10.9715C135.494 14.463 133.717 17.284 129.566 17.284C125.415 17.284 123.638 14.4653 123.638 10.9715V8.41434ZM132.559 8.5261C132.559 6.19246 131.773 4.84681 129.566 4.84681C127.359 4.84681 126.573 6.19022 126.573 8.5261V10.8597C126.573 13.1755 127.359 14.5189 129.566 14.5189C131.773 14.5189 132.559 13.1755 132.559 10.8597V8.5261Z" fill="#202936"></path><path d="M148.831 6.72495C148.831 4.36448 147.178 2.43989 145.103 2.3326V2.32812H137.813V17.0431H140.693V11.124H142.475L145.611 17.0431H148.826L145.647 11.0458C147.456 10.6613 148.826 8.87307 148.826 6.72718L148.831 6.72495ZM144.454 8.37012H140.695V5.07754H144.454C145.244 5.07754 145.884 5.81518 145.884 6.72271C145.884 7.63024 145.244 8.36789 144.454 8.36789V8.37012Z" fill="#202936"></path><path d="M168.442 17.2837C164.69 17.2837 162.879 15.0797 162.879 12.4108H165.921C165.977 13.9598 167.135 14.5209 168.442 14.5209C170.142 14.5209 170.795 13.7564 170.795 13.0076C170.795 12.185 170.274 11.7558 169.116 11.3468L166.763 10.5063C164.207 9.59206 163.329 8.35817 163.309 6.32406C163.291 3.91441 165.082 2.08594 168.312 2.08594C172.083 2.08594 173.634 4.49558 173.634 6.79123H170.592C170.424 5.37182 169.584 4.84876 168.315 4.84876C166.951 4.84876 166.242 5.50147 166.242 6.32406C166.242 7.22041 166.913 7.49982 168.371 8.02288L170.574 8.80747C172.759 9.59206 173.728 11.0115 173.728 12.9539C173.728 15.4195 171.805 17.2859 168.445 17.2859L168.442 17.2837Z" fill="#202936"></path><path d="M162.241 2.32812H158.894L155.171 8.24718H154.103V2.32812H151.224V17.0431H154.103V11.124H155.171L159.084 17.0431H162.431L157.568 9.68448L162.241 2.32812Z" fill="#202936"></path><defs><linearGradient id="paint0_linear_13536_183486" x1="16.8901" y1="18.962" x2="25.7999" y2="-0.171604" gradientUnits="userSpaceOnUse"><stop stop-color="#0563EB"></stop><stop offset="1" stop-color="#6040FF"></stop></linearGradient><linearGradient id="paint1_linear_13536_183486" x1="4.3526" y1="11.4094" x2="22.189" y2="11.4094" gradientUnits="userSpaceOnUse"><stop stop-color="#00BEFF"></stop><stop offset="1" stop-color="#0093FF"></stop></linearGradient><linearGradient id="paint2_linear_13536_183486" x1="0.723565" y1="-0.160941" x2="9.63343" y2="18.9794" gradientUnits="userSpaceOnUse"><stop stop-color="#00E355"></stop><stop offset="1" stop-color="#00CF62"></stop></linearGradient></defs></svg>